<?xml version="1.0" encoding="UTF-8"?>
<svg id="b" xmlns="http://www.w3.org/2000/svg" width="40" height="40" viewBox="0 0 40 40">
  <path d="M15,7.53c-.66,0-1.3.26-1.77.73-.47.47-.73,1.1-.73,1.77s.26,1.3.73,1.77c.47.47,1.1.73,1.77.73h13.97l-3.23,3.23c-.46.47-.71,1.1-.7,1.76,0,.66.27,1.28.73,1.75.46.46,1.09.73,1.75.73.66,0,1.29-.25,1.76-.7l7.5-7.5c.47-.47.73-1.1.73-1.77s-.26-1.3-.73-1.77L29.27.76c-.23-.24-.51-.43-.81-.56C28.15.07,27.82,0,27.49,0c-.33,0-.66.06-.97.19-.31.13-.59.31-.82.55-.23.23-.42.51-.55.82-.13.31-.19.64-.19.97,0,.33.07.66.2.97.13.31.32.58.56.81l3.23,3.23h-13.97Z" fill="#231f20" stroke-width="0"/><path d="M25,32.53c.66,0,1.3-.26,1.77-.73.47-.47.73-1.1.73-1.77s-.26-1.3-.73-1.77c-.47-.47-1.1-.73-1.77-.73h-13.97l3.23-3.23c.24-.23.43-.51.56-.81.13-.31.2-.63.2-.97,0-.33-.06-.66-.19-.97-.13-.31-.31-.59-.55-.82s-.51-.42-.82-.55c-.31-.13-.64-.19-.97-.19-.33,0-.66.07-.97.2-.31.13-.58.32-.81.56l-7.5,7.5c-.47.47-.73,1.1-.73,1.77s.26,1.3.73,1.77l7.5,7.5c.47.46,1.1.71,1.76.7.66,0,1.28-.27,1.75-.73.46-.46.73-1.09.73-1.75s-.25-1.29-.7-1.76l-3.23-3.23h13.97Z" fill="#231f20" stroke-width="0"/>
</svg>
