<?xml version="1.0" encoding="UTF-8"?>
<svg id="b" xmlns="http://www.w3.org/2000/svg" width="40" height="40" viewBox="0 0 40 40">
  <path d="M26,4c2.61,0,4.84,1.67,5.66,4H14c-2.65,0-5.2,1.05-7.07,2.93-1.88,1.88-2.93,4.42-2.93,7.07v9.66c-1.17-.41-2.18-1.18-2.9-2.19C.38,24.45,0,23.24,0,22v-12C0,8.41.63,6.88,1.76,5.76c1.13-1.13,2.65-1.76,4.24-1.76h20ZM34,12H14c-1.59,0-3.12.63-4.24,1.76-1.13,1.13-1.76,2.65-1.76,4.24v12c0,1.59.63,3.12,1.76,4.24,1.13,1.13,2.65,1.76,4.24,1.76h20c1.59,0,3.12-.63,4.24-1.76,1.13-1.13,1.76-2.65,1.76-4.24v-12c0-1.59-.63-3.12-1.76-4.24-1.13-1.13-2.65-1.76-4.24-1.76ZM28,24c0,1.06-.42,2.08-1.17,2.83-.75.75-1.77,1.17-2.83,1.17s-2.08-.42-2.83-1.17c-.75-.75-1.17-1.77-1.17-2.83s.42-2.08,1.17-2.83c.75-.75,1.77-1.17,2.83-1.17s2.08.42,2.83,1.17c.75.75,1.17,1.77,1.17,2.83Z" fill="#231f20" fill-rule="evenodd" stroke-width="0"/>
</svg>
